# xmcd
#
# Track frame offsets: 
#        150
#        30525
#        48150
#        70100
#        92700
#        110925
#        131925
#        153350
#        173400
#        193800
#
# Disc length: 2807 seconds
#
# Revision: 8
# Processed by: cddbd v1.5.2PL0 Copyright (c) Steve Scherf et al.
# Submitted via: ExactAudioCopy v0.99pb4
#
DISCID=850af50a
DTITLE=TWO-MIX Single Collection - TWO-MIX Single Collection - Forever
DTITLE=Remix
DYEAR=2008
DGENRE=Salsa
TTITLE0=[Carmen Mix] (Picasso)
TTITLE1=[Cee-light Mix] (Kiyonori Matsuo)
TTITLE2=[HookofDub Mix] (Picasso)
TTITLE3=[Jam-Slam-ica Mix] (Picasso)
TTITLE4=[Neanderthal Mix] (Picasso)
TTITLE5=[JetJetJet Mix] (Takao Kisugi)
TTITLE6=[Cro-Magnon Mix] (Picasso)
TTITLE7=[Original Mix] (Picasso)
TTITLE8=[Eternallove Mix] (Sumi Shimamoto)
TTITLE9=[Rough Mix] (Sumi Shimamoto)
EXTD=YEAR: 2008
EXTT0=
EXTT1=
EXTT2=
EXTT3=
EXTT4=
EXTT5=
EXTT6=
EXTT7=
EXTT8=
EXTT9=
PLAYORDER=
